# xmcd
#
# Track frame offsets:
#	150
#	13099
#	30450
#	48075
#	63690
#	84954
#	102182
#	117456
#	131433
#	148921
#	164881
#	181233
#
# Disc length: 2640 seconds
#
# Revision: 1
# Processed by: cddbd v1.5.2PL0 Copyright (c) Steve Scherf et al.
# Submitted via: audiograbber 1.83.01
#
DISCID=a40a4e0c
DTITLE=Alan Jackson - Freight Train
DYEAR=2010
DGENRE=Country
TTITLE0=Hard Hat and A Hammer
TTITLE1=Every Now and Then
TTITLE2=After 17
TTITLE3=It's Just That Way
TTITLE4=Freight Train
TTITLE5=Taillights Blue
TTITLE6=I Could Get Used To This Lovin' Thing
TTITLE7=Till The End (With Lee Ann Womack)
TTITLE8=That's Where I Belong
TTITLE9=Big Green Eyes
TTITLE10=True Love Is A Golden Ring
TTITLE11=The Best Keeps Getting Better
EXTD=
EXTT0=
EXTT1=
EXTT2=
EXTT3=
EXTT4=
EXTT5=
EXTT6=
EXTT7=
EXTT8=
EXTT9=
EXTT10=
EXTT11=
PLAYORDER=
